<svg width="24" height="24" viewBox="0 0 24 24" fill="currentColor" xmlns="http://www.w3.org/2000/svg">
<g clip-path="url(#clip0_3322_2)">
<path d="M24.0032 9.01821C24.0037 8.6446 23.9179 8.2775 23.7546 7.95423C23.5912 7.63096 23.3561 7.36307 23.0732 7.17778L12.9632 0.297651C12.6718 0.102717 12.3405 0 12.0032 0C11.6659 0 11.3346 0.102717 11.0432 0.297651L0.918199 7.17778C0.638406 7.36815 0.406627 7.63873 0.24564 7.96292C0.0846534 8.28711 0 8.65375 0 9.02681C0 9.39988 0.0846534 9.76652 0.24564 10.0907C0.406627 10.4149 0.638406 10.6855 0.918199 10.8758L3.7982 12.8023V17.6356C3.79993 18.0133 3.88639 18.3842 4.04926 18.7125C4.21214 19.0409 4.44594 19.3156 4.7282 19.5104L11.1032 23.7245C11.3878 23.9052 11.7078 24 12.0332 24C12.3585 24 12.6786 23.9052 12.9632 23.7245L19.3382 19.5104C19.6205 19.3156 19.8543 19.0409 20.0171 18.7125C20.18 18.3842 20.2665 18.0133 20.2682 17.6356V12.7507L22.1282 11.4951V16.1735H24.0032V9.01821ZM18.4082 17.6184L12.0032 21.8497L5.6732 17.6356V14.0751L11.0432 17.7388C11.3356 17.9303 11.6665 18.0311 12.0032 18.0311C12.3399 18.0311 12.6708 17.9303 12.9632 17.7388L18.3932 14.0235L18.4082 17.6184ZM12.0032 15.8811L1.8782 9.00101L12.0032 2.10368L22.1282 8.98381L12.0032 15.8811Z" fill="#F67023"/>
</g>
<defs>
<clipPath id="clip0_3322_2">
<rect width="24" height="24" fill="white"/>
</clipPath>
</defs>
</svg>
