<svg width="24" height="24" viewBox="0 0 24 24" fill="none" xmlns="http://www.w3.org/2000/svg">
<g clip-path="url(#clip0_3322_6)">
<path fill-rule="evenodd" clip-rule="evenodd" d="M3.42857 1.2C2.97391 1.2 2.53788 1.32643 2.21639 1.55147C1.8949 1.77652 1.71429 2.08174 1.71429 2.4V19.2C1.71429 19.5183 1.8949 19.8235 2.21639 20.0485C2.53788 20.2736 2.97391 20.4 3.42857 20.4H12.8571V21.6H3.42857C2.51926 21.6 1.64719 21.3471 1.00421 20.8971C0.361223 20.447 0 19.8365 0 19.2V2.4C0 1.76348 0.361223 1.15303 1.00421 0.702944C1.64719 0.252856 2.51926 0 3.42857 0H20.5714C21.4807 0 22.3528 0.252856 22.9958 0.702944C23.6388 1.15303 24 1.76348 24 2.4V19.2C24 19.8365 23.6388 20.447 22.9958 20.8971C22.3528 21.3471 21.4807 21.6 20.5714 21.6H18V20.4H20.5714C21.0261 20.4 21.4621 20.2736 21.7836 20.0485C22.1051 19.8235 22.2857 19.5183 22.2857 19.2V2.4C22.2857 2.08174 22.1051 1.77652 21.7836 1.55147C21.4621 1.32643 21.0261 1.2 20.5714 1.2H3.42857Z" fill="#F67023"/>
<path fill-rule="evenodd" clip-rule="evenodd" d="M6.85716 4.20001C6.85716 4.04088 6.94747 3.88826 7.10821 3.77574C7.26896 3.66322 7.48698 3.60001 7.7143 3.60001H16.2857C16.5131 3.60001 16.7311 3.66322 16.8918 3.77574C17.0526 3.88826 17.1429 4.04088 17.1429 4.20001C17.1429 4.35914 17.0526 4.51175 16.8918 4.62427C16.7311 4.73679 16.5131 4.80001 16.2857 4.80001H7.7143C7.48698 4.80001 7.26896 4.73679 7.10821 4.62427C6.94747 4.51175 6.85716 4.35914 6.85716 4.20001ZM3.42859 7.80001C3.42859 7.64088 3.51889 7.48826 3.67964 7.37574C3.84039 7.26322 4.0584 7.20001 4.28573 7.20001H19.7143C19.9416 7.20001 20.1597 7.26322 20.3204 7.37574C20.4811 7.48826 20.5714 7.64088 20.5714 7.80001C20.5714 7.95914 20.4811 8.11175 20.3204 8.22427C20.1597 8.33679 19.9416 8.40001 19.7143 8.40001H4.28573C4.0584 8.40001 3.84039 8.33679 3.67964 8.22427C3.51889 8.11175 3.42859 7.95914 3.42859 7.80001ZM3.42859 10.2C3.42859 10.0409 3.51889 9.88826 3.67964 9.77574C3.84039 9.66322 4.0584 9.60001 4.28573 9.60001H19.7143C19.9416 9.60001 20.1597 9.66322 20.3204 9.77574C20.4811 9.88826 20.5714 10.0409 20.5714 10.2C20.5714 10.3591 20.4811 10.5117 20.3204 10.6243C20.1597 10.7368 19.9416 10.8 19.7143 10.8H4.28573C4.0584 10.8 3.84039 10.7368 3.67964 10.6243C3.51889 10.5117 3.42859 10.3591 3.42859 10.2ZM3.42859 12.6C3.42859 12.4409 3.51889 12.2883 3.67964 12.1757C3.84039 12.0632 4.0584 12 4.28573 12H19.7143C19.9416 12 20.1597 12.0632 20.3204 12.1757C20.4811 12.2883 20.5714 12.4409 20.5714 12.6C20.5714 12.7591 20.4811 12.9117 20.3204 13.0243C20.1597 13.1368 19.9416 13.2 19.7143 13.2H4.28573C4.0584 13.2 3.84039 13.1368 3.67964 13.0243C3.51889 12.9117 3.42859 12.7591 3.42859 12.6ZM15.4286 18.6C15.8832 18.6 16.3193 18.4736 16.6408 18.2485C16.9623 18.0235 17.1429 17.7183 17.1429 17.4C17.1429 17.0817 16.9623 16.7765 16.6408 16.5515C16.3193 16.3264 15.8832 16.2 15.4286 16.2C14.9739 16.2 14.5379 16.3264 14.2164 16.5515C13.8949 16.7765 13.7143 17.0817 13.7143 17.4C13.7143 17.7183 13.8949 18.0235 14.2164 18.2485C14.5379 18.4736 14.9739 18.6 15.4286 18.6V18.6ZM15.4286 19.8C16.3379 19.8 17.21 19.5471 17.853 19.0971C18.4959 18.647 18.8572 18.0365 18.8572 17.4C18.8572 16.7635 18.4959 16.153 17.853 15.703C17.21 15.2529 16.3379 15 15.4286 15C14.5193 15 13.6472 15.2529 13.0042 15.703C12.3612 16.153 12 16.7635 12 17.4C12 18.0365 12.3612 18.647 13.0042 19.0971C13.6472 19.5471 14.5193 19.8 15.4286 19.8Z" fill="#F67023"/>
<path fill-rule="evenodd" clip-rule="evenodd" d="M14.5715 18.6H12.8572V24L15.4286 23.1L18 24V18.6H16.2857V22.0584L15.4286 21.7584L14.5715 22.0584V18.6Z" fill="#F67023"/>
</g>
<defs>
<clipPath id="clip0_3322_6">
<rect width="24" height="24" fill="white"/>
</clipPath>
</defs>
</svg>
