<svg width="41" height="40" viewBox="0 0 41 40" fill="none" xmlns="http://www.w3.org/2000/svg">
<g clip-path="url(#clip0_3153_442)">
<path d="M3.63902 36.0014L0 0H40L36.3561 35.9957L19.9757 40L3.63902 36.0014Z" fill="#1572B6"/>
<path d="M20 36.94L33.2372 33.7043L36.3513 2.94428H20V36.94Z" fill="#33A9DC"/>
<path d="M20 15.9871H26.6267L27.0836 11.4657H20V7.05H32.5567L32.4368 8.23429L31.2071 20.4029H20V15.9871V15.9871Z" fill="#F0E4DB"/>
<path d="M20.0307 27.4543L20.008 27.46L14.4312 26.1314L14.0748 22.61H9.04724L9.7488 29.5429L20.0064 32.0543L20.0307 32.0486V27.4543V27.4543Z" fill="#F0E4DB"/>
<path d="M26.2006 20.2157L25.5979 26.1286L20.013 27.4571V32.0514L30.2787 29.5429L30.3548 28.7971L31.2249 20.2157H26.2006V20.2157Z" fill="#F0E4DB"/>
<path d="M20.0177 7.05V11.4657H7.92118L7.82073 10.4729L7.59228 8.23429L7.47238 7.05H20.0177V7.05ZM19.9999 15.9871V20.4029H14.4928L14.3923 19.41L14.1655 17.1714L14.0456 15.9871H19.9999V15.9871Z" fill="#F0E4DB"/>
</g>
<defs>
<clipPath id="clip0_3153_442">
<rect width="40" height="40" fill="white" transform="translate(0.0697021)"/>
</clipPath>
</defs>
</svg>
