<svg width="35" height="35" viewBox="0 0 35 35" fill="none" xmlns="http://www.w3.org/2000/svg">
<path d="M17 13.4444V24.1111V13.4444ZM17 24.1111L10.1429 18.7778L17 24.1111ZM17 24.1111L23.8571 18.7778L17 24.1111ZM28.4286 33H5.57143C4.35901 33 3.19625 32.6254 2.33894 31.9586C1.48163 31.2918 1 30.3874 1 29.4444V4.55556C1 3.61256 1.48163 2.70819 2.33894 2.0414C3.19625 1.3746 4.35901 1 5.57143 1H18.3394C18.9456 1.0001 19.5269 1.18747 19.9554 1.52089L32.3303 11.1458C32.759 11.4791 32.9999 11.9312 33 12.4027V29.4444C33 30.3874 32.5184 31.2918 31.6611 31.9586C30.8038 32.6254 29.641 33 28.4286 33Z" stroke="#F67023" stroke-width="2" stroke-linecap="round" stroke-linejoin="round"/>
</svg>
