<svg width="41" height="40" viewBox="0 0 41 40" fill="none" xmlns="http://www.w3.org/2000/svg">
<g clip-path="url(#clip0_3153_360)">
<path d="M10.1311 40C15.6504 40 20.1298 37.0133 20.1298 33.3333V26.6667H10.1311C4.61175 26.6667 0.132309 29.6533 0.132309 33.3333C0.132309 37.0133 4.61175 40 10.1311 40Z" fill="#0ACF83"/>
<path d="M0.132309 20C0.132309 16.32 4.61175 13.3333 10.1311 13.3333H20.1298V26.6667H10.1311C4.61175 26.6667 0.132309 23.68 0.132309 20Z" fill="#A259FF"/>
<path d="M0.132309 6.66667C0.132309 2.98667 4.61175 0 10.1311 0H20.1298V13.3333H10.1311C4.61175 13.3333 0.132309 10.3467 0.132309 6.66667Z" fill="#F24E1E"/>
<path d="M20.1297 0H30.1284C35.6477 0 40.1272 2.98667 40.1272 6.66667C40.1272 10.3467 35.6477 13.3333 30.1284 13.3333H20.1297V0Z" fill="#FF7262"/>
<path d="M40.1272 20C40.1272 23.68 35.6477 26.6667 30.1284 26.6667C24.6091 26.6667 20.1297 23.68 20.1297 20C20.1297 16.32 24.6091 13.3333 30.1284 13.3333C35.6477 13.3333 40.1272 16.32 40.1272 20Z" fill="#1ABCFE"/>
</g>
<defs>
<clipPath id="clip0_3153_360">
<rect width="40" height="40" fill="white" transform="translate(0.129669)"/>
</clipPath>
</defs>
</svg>
