<svg width="25" height="25" viewBox="0 0 25 25" fill="none" xmlns="http://www.w3.org/2000/svg">
<path fill-rule="evenodd" clip-rule="evenodd" d="M8.28877 3.2726C7.48076 3.2726 6.70585 3.73219 6.1345 4.55026C5.56315 5.36833 5.24217 6.47788 5.24217 7.63481C5.24217 8.79173 5.56315 9.90128 6.1345 10.7194C6.70585 11.5374 7.48076 11.997 8.28877 11.997C9.09677 11.997 9.87169 11.5374 10.443 10.7194C11.0144 9.90128 11.3354 8.79173 11.3354 7.63481C11.3354 6.47788 11.0144 5.36833 10.443 4.55026C9.87169 3.73219 9.09677 3.2726 8.28877 3.2726ZM2.95723 7.63481C2.95712 6.36949 3.17668 5.12397 3.59615 4.01029C4.01562 2.8966 4.62185 1.94967 5.36031 1.25467C6.09877 0.559668 6.94631 0.13839 7.82669 0.0287265C8.70707 -0.0809366 9.59268 0.124455 10.4039 0.626427C11.2151 1.1284 11.9264 1.91121 12.4739 2.90445C13.0214 3.89769 13.3878 5.0702 13.5403 6.31654C13.6928 7.56288 13.6266 8.84394 13.3475 10.0445C13.0684 11.2451 12.5853 12.3275 11.9416 13.1944C13.1555 14.0376 14.2094 15.2876 15.014 16.8383C15.8185 18.3889 16.35 20.1946 16.5633 22.1021C16.5868 22.3143 16.5809 22.5311 16.5459 22.7401C16.5109 22.949 16.4475 23.1461 16.3593 23.32C16.2711 23.4938 16.1598 23.6411 16.0319 23.7534C15.9039 23.8658 15.7618 23.9409 15.6135 23.9745C15.4653 24.0082 15.3139 23.9997 15.168 23.9496C15.022 23.8995 14.8844 23.8087 14.763 23.6824C14.6415 23.5561 14.5386 23.3968 14.4602 23.2136C14.3818 23.0304 14.3293 22.8269 14.3058 22.6146C14.0753 20.5674 13.3431 18.7045 12.2406 17.36C11.138 16.0154 9.73704 15.2769 8.28877 15.2769C6.84049 15.2769 5.43954 16.0154 4.33696 17.36C3.23439 18.7045 2.50225 20.5674 2.27175 22.6146C2.24814 22.8269 2.19557 23.0304 2.11704 23.2135C2.0385 23.3967 1.93555 23.5559 1.81404 23.6821C1.69253 23.8082 1.55486 23.8989 1.40888 23.9489C1.2629 23.9989 1.11147 24.0073 0.963236 23.9735C0.815005 23.9397 0.672874 23.8644 0.54496 23.7519C0.417045 23.6395 0.305852 23.4921 0.217728 23.3181C0.129604 23.1441 0.0662749 22.947 0.0313574 22.738C-0.00356009 22.5289 -0.00938255 22.3121 0.0142224 22.0999C0.227994 20.1932 0.759686 18.3884 1.56422 16.8385C2.36876 15.2887 3.42243 14.0394 4.6359 13.1966C4.10508 12.4835 3.68219 11.6219 3.39343 10.6652C3.10468 9.70845 2.95621 8.67703 2.95723 7.63481V7.63481ZM16.6669 4.36315C16.3639 4.36315 16.0733 4.53549 15.859 4.84227C15.6448 5.14905 15.5244 5.56513 15.5244 5.99898C15.5244 6.43283 15.6448 6.84891 15.859 7.15568C16.0733 7.46246 16.3639 7.63481 16.6669 7.63481C17.1823 7.63484 17.6826 7.88439 18.0864 8.3429C18.4903 8.80141 18.774 9.44195 18.8915 10.1605C19.009 10.879 18.9534 11.6334 18.7338 12.3009C18.5141 12.9685 18.1432 13.5102 17.6814 13.8379C17.491 13.9735 17.3307 14.1826 17.2188 14.4415C17.1068 14.7005 17.0476 14.999 17.0477 15.3036V16.0713C17.0474 16.4388 17.1335 16.7956 17.2921 17.0845C17.4507 17.3733 17.6726 17.5773 17.9221 17.6635C19.75 18.2939 21.2155 20.2808 21.7638 22.8371C21.8073 23.0433 21.8789 23.2352 21.9743 23.4018C22.0697 23.5683 22.1872 23.7062 22.32 23.8076C22.4527 23.909 22.5982 23.9718 22.7479 23.9925C22.8977 24.0131 23.0488 23.9912 23.1927 23.928C23.3365 23.8648 23.4702 23.7616 23.5861 23.6242C23.702 23.4868 23.7978 23.318 23.868 23.1275C23.9382 22.937 23.9814 22.7284 23.9952 22.5139C24.009 22.2994 23.993 22.0831 23.9482 21.8774C23.6434 20.4609 23.1405 19.1481 22.4701 18.0187C21.7997 16.8893 20.9758 15.967 20.0486 15.3079C20.6442 14.3699 21.0366 13.2044 21.1782 11.9531C21.3198 10.7017 21.2045 9.41844 20.8463 8.25915C20.4881 7.09987 19.9025 6.11453 19.1605 5.42288C18.4185 4.73124 17.5522 4.36308 16.6669 4.36315V4.36315Z" fill="#F67023"/>
</svg>
