<svg width="41" height="40" viewBox="0 0 41 40" fill="none" xmlns="http://www.w3.org/2000/svg">
<g clip-path="url(#clip0_3153_411)">
<path d="M39.9798 18.2178L22.5154 0.754397C21.5103 -0.251384 19.879 -0.251384 18.8726 0.754397L15.2461 4.38096L19.8465 8.98143C20.9156 8.62018 22.1415 8.86252 22.9937 9.71471C23.85 10.5724 24.0906 11.8088 23.7206 12.8813L28.1542 17.315C29.2268 16.9455 30.4645 17.1846 31.3212 18.0427C32.5186 19.2396 32.5186 21.1794 31.3212 22.3771C30.1236 23.5749 28.1837 23.5749 26.9854 22.3771C26.0848 21.4755 25.8623 20.1528 26.3183 19.0433L22.1836 14.9086L22.1831 25.7894C22.4828 25.9376 22.7566 26.1334 22.9937 26.3691C24.1911 27.566 24.1911 29.506 22.9937 30.7046C21.7961 31.9017 19.8553 31.9017 18.6593 30.7046C17.462 29.506 17.462 27.5661 18.6593 26.3692C18.9463 26.0822 19.2873 25.8548 19.6626 25.7003V14.7181C19.2867 14.5647 18.9455 14.3372 18.6593 14.0492C17.7522 13.1433 17.534 11.8122 17.9989 10.6983L13.4639 6.16283L1.48888 18.1371C0.482629 19.1438 0.482629 20.7752 1.48888 21.7811L18.9536 39.2449C19.959 40.2508 21.59 40.2508 22.5967 39.2449L39.9797 21.8622C40.9856 20.856 40.9856 19.2236 39.9797 18.2178" fill="#DE4C36"/>
</g>
<defs>
<clipPath id="clip0_3153_411">
<rect width="40" height="40" fill="white" transform="translate(0.734192)"/>
</clipPath>
</defs>
</svg>
