<svg width="32" height="32" viewBox="0 0 33 33" fill="none" xmlns="http://www.w3.org/2000/svg">
<g clip-path="url(#clip0_3182_402)">
<path d="M22.1075 30.0177V24.8577C22.1575 24.2219 22.0716 23.5828 21.8555 22.9827C21.6394 22.3827 21.298 21.8356 20.8541 21.3777C25.0408 20.911 29.4408 19.3244 29.4408 12.0444C29.4404 10.1828 28.7244 8.39262 27.4408 7.04435C28.0486 5.4157 28.0056 3.61549 27.3208 2.01769C27.3208 2.01769 25.7475 1.55102 22.1075 3.99102C19.0515 3.16278 15.8301 3.16278 12.7741 3.99102C9.13413 1.55102 7.5608 2.01769 7.5608 2.01769C6.87596 3.61549 6.83299 5.4157 7.4408 7.04435C6.14763 8.40262 5.43083 10.209 5.4408 12.0844C5.4408 19.311 9.84079 20.8977 14.0275 21.4177C13.5888 21.871 13.2505 22.4116 13.0345 23.0042C12.8186 23.5969 12.7299 24.2284 12.7741 24.8577V30.0177M12.7741 26.0177C6.10746 28.0177 6.10746 22.6844 3.4408 22.0177L12.7741 26.0177Z" stroke="#F67023" stroke-width="2" stroke-linecap="round" stroke-linejoin="round"/>
</g>
<defs>
<clipPath id="clip0_3182_402">
<rect width="32" height="32" fill="white" transform="translate(0.77417 0.684357)"/>
</clipPath>
</defs>
</svg>
