<svg width="41" height="40" viewBox="0 0 41 40" fill="none" xmlns="http://www.w3.org/2000/svg">
<path d="M4.64034 36.0014L1 0H41L37.3548 35.9957L20.9757 40L4.64034 36.0014Z" fill="#E44F26"/>
<path d="M21 36.94L34.2361 33.7043L37.3499 2.94428H21V36.94Z" fill="#F1662A"/>
<path d="M21 16.2957H14.3738L13.917 11.7743H21V7.35857H8.44431L8.56419 8.54429L9.79384 20.7114H21V16.2957V16.2957ZM21 27.7629L20.9773 27.7686L15.401 26.4414L15.0445 22.92H10.0174L10.7189 29.8514L20.9773 32.3629L21 32.3571V27.7629Z" fill="#F0E4DB"/>
<path d="M20.9822 16.2957V20.7114H27.1483L26.5683 26.4386L20.9822 27.7671V32.3614L31.2487 29.8514L31.3232 29.1057L32.4994 17.4814L32.6225 16.2957H20.9822V16.2957ZM20.9822 7.35857V11.7743H33.0778L33.1782 10.7829L33.4067 8.54429L33.5266 7.35857H20.9822V7.35857Z" fill="#F0E4DB"/>
</svg>
