<svg width="50" height="50" viewBox="0 0 50 50" fill="none" xmlns="http://www.w3.org/2000/svg">
<path d="M45.5882 50H4.41176C1.91176 50 0 47.5 0 44.2308V5.76923C0 2.5 1.91176 0 4.41176 0H45.5882C48.0882 0 50 2.5 50 5.76923V44.2308C50 47.5 48.0882 50 45.5882 50ZM4.41176 3.84615C3.52941 3.84615 2.94118 4.61538 2.94118 5.76923V44.2308C2.94118 45.3846 3.52941 46.1538 4.41176 46.1538H45.5882C46.4706 46.1538 47.0588 45.3846 47.0588 44.2308V5.76923C47.0588 4.61538 46.4706 3.84615 45.5882 3.84615H4.41176Z" fill="black"/>
<path d="M32.3529 23.0769C29.1176 23.0769 26.4706 19.6154 26.4706 15.3846C26.4706 11.1539 29.1176 7.69232 32.3529 7.69232C35.5882 7.69232 38.2353 11.1539 38.2353 15.3846C38.2353 19.6154 35.5882 23.0769 32.3529 23.0769ZM32.3529 11.5385C30.7353 11.5385 29.4118 13.2692 29.4118 15.3846C29.4118 17.5 30.7353 19.2308 32.3529 19.2308C33.9706 19.2308 35.2941 17.5 35.2941 15.3846C35.2941 13.2692 33.9706 11.5385 32.3529 11.5385ZM40.147 49.4231L16.1765 20L2.49999 36.5385L0.441162 33.8462L16.1765 14.6154L42.2059 46.7308L40.147 49.4231Z" fill="black"/>
<path d="M47.647 39.8077L39.7058 31.3462L33.0882 38.4616L31.1764 35.3846L39.7058 26.3462L49.4117 36.7308L47.647 39.8077Z" fill="black"/>
</svg>
