<svg width="41" height="40" viewBox="0 0 41 40" fill="none" xmlns="http://www.w3.org/2000/svg">
<path d="M0.0696487 7.62939e-06H40.0696V40H0.0696487V7.62939e-06Z" fill="#F7DF1E"/>
<path d="M10.5871 33.4269L13.6481 31.5744C14.2387 32.6214 14.7759 33.5073 16.0645 33.5073C17.2996 33.5073 18.0786 33.0242 18.0786 31.1448V18.3639H21.8375V31.198C21.8375 35.0913 19.5553 36.8634 16.2256 36.8634C13.2186 36.8634 11.4731 35.3061 10.587 33.4266L10.5871 33.4269ZM23.8792 33.0241L26.9398 31.252C27.7456 32.5678 28.7928 33.5344 30.6453 33.5344C32.2029 33.5344 33.1961 32.7556 33.1961 31.6816C33.1961 30.3928 32.1757 29.9363 30.4573 29.1847L29.5178 28.7816C26.8057 27.6273 25.0068 26.1773 25.0068 23.1164C25.0068 20.297 27.1548 18.1489 30.5112 18.1489C32.9009 18.1489 34.6193 18.9814 35.8543 21.1563L32.9275 23.0359C32.2829 21.8814 31.5851 21.425 30.5111 21.425C29.4101 21.425 28.712 22.1231 28.712 23.0359C28.712 24.1636 29.4101 24.6203 31.0211 25.3184L31.9607 25.7211C35.156 27.0906 36.955 28.4867 36.955 31.628C36.955 35.0114 34.2968 36.8639 30.7257 36.8639C27.2353 36.8639 24.9798 35.1992 23.879 33.0242" fill="black"/>
</svg>
