<svg width="33" height="33" viewBox="0 0 33 33" fill="none" xmlns="http://www.w3.org/2000/svg">
<path d="M21.5914 11.351C23.7132 11.351 25.748 12.1939 27.2483 13.6942C28.7486 15.1945 29.5914 17.2293 29.5914 19.351V28.6844H24.2581V19.351C24.2581 18.6438 23.9771 17.9655 23.477 17.4654C22.977 16.9653 22.2987 16.6844 21.5914 16.6844C20.8842 16.6844 20.2059 16.9653 19.7058 17.4654C19.2057 17.9655 18.9248 18.6438 18.9248 19.351V28.6844H13.5914V19.351C13.5914 17.2293 14.4343 15.1945 15.9346 13.6942C17.4349 12.1939 19.4697 11.351 21.5914 11.351V11.351Z" stroke="#F67023" stroke-width="2" stroke-linecap="round" stroke-linejoin="round"/>
<path d="M8.25802 12.6844H2.92468V28.6844H8.25802V12.6844Z" stroke="#F67023" stroke-width="2" stroke-linecap="round" stroke-linejoin="round"/>
<path d="M5.59135 8.68436C7.06411 8.68436 8.25802 7.49045 8.25802 6.01769C8.25802 4.54494 7.06411 3.35103 5.59135 3.35103C4.11859 3.35103 2.92468 4.54494 2.92468 6.01769C2.92468 7.49045 4.11859 8.68436 5.59135 8.68436Z" stroke="#F67023" stroke-width="2" stroke-linecap="round" stroke-linejoin="round"/>
</svg>
