<svg width="25" height="25" viewBox="0 0 25 25" fill="none" xmlns="http://www.w3.org/2000/svg">
<path fill-rule="evenodd" clip-rule="evenodd" d="M17.6911 5.60576C18.3878 6.30223 18.9404 7.12911 19.3174 8.03918C19.6944 8.94925 19.8885 9.92468 19.8885 10.9098C19.8885 11.8948 19.6944 12.8703 19.3174 13.7803C18.9404 14.6904 18.3878 15.5173 17.6911 16.2138L12.3871 21.5148L7.08309 16.2123C6.38656 15.5157 5.83404 14.6888 5.45708 13.7788C5.08012 12.8687 4.8861 11.8933 4.8861 10.9083C4.8861 9.92322 5.08012 8.94782 5.45708 8.03776C5.83404 7.1277 6.38656 6.30079 7.08309 5.60426C7.77962 4.90773 8.60653 4.35521 9.51659 3.97825C10.4267 3.60129 11.4021 3.40727 12.3871 3.40727C13.3721 3.40727 14.3475 3.60129 15.2576 3.97825C16.1677 4.35521 16.9946 4.90773 17.6911 5.60426V5.60576V5.60576ZM19.2811 17.8038C20.6447 16.4402 21.5734 14.7029 21.9497 12.8116C22.326 10.9203 22.1329 8.95983 21.395 7.17821C20.6571 5.39658 19.4074 3.87379 17.804 2.80241C16.2006 1.73103 14.3155 1.15918 12.3871 1.15918C10.4587 1.15918 8.5736 1.73103 6.9702 2.80241C5.3668 3.87379 4.11712 5.39658 3.37919 7.17821C2.64125 8.95983 2.44822 10.9203 2.82449 12.8116C3.20077 14.7029 4.12945 16.4402 5.49309 17.8038L10.7956 23.1078C11.0045 23.3168 11.2526 23.4827 11.5257 23.5959C11.7988 23.709 12.0915 23.7673 12.3871 23.7673C12.6827 23.7673 12.9754 23.709 13.2485 23.5959C13.5215 23.4827 13.7696 23.3168 13.9786 23.1078L19.2811 17.8038ZM12.3871 13.9098C13.1827 13.9098 13.9458 13.5937 14.5084 13.0311C15.071 12.4685 15.3871 11.7054 15.3871 10.9098C15.3871 10.1141 15.071 9.35105 14.5084 8.78844C13.9458 8.22583 13.1827 7.90976 12.3871 7.90976C11.5914 7.90976 10.8284 8.22583 10.2658 8.78844C9.70317 9.35105 9.38709 10.1141 9.38709 10.9098C9.38709 11.7054 9.70317 12.4685 10.2658 13.0311C10.8284 13.5937 11.5914 13.9098 12.3871 13.9098V13.9098Z" fill="#F67023"/>
</svg>
