<svg width="43" height="40" viewBox="0 0 43 40" fill="none" xmlns="http://www.w3.org/2000/svg">
<g clip-path="url(#clip0_3153_425)">
<path d="M19.7594 0.0107819C19.6689 0.0185944 19.3805 0.0459382 19.1209 0.0654694C13.1358 0.577657 7.52946 3.64266 3.97873 8.35359C2.00147 10.973 0.736958 13.9442 0.259104 17.0914C0.090217 18.1898 0.0696411 18.5144 0.0696411 20.0039C0.0696411 21.4934 0.090217 21.818 0.259104 22.9164C1.40427 30.4266 7.03515 36.7366 14.6721 39.0744C16.0398 39.4928 17.4814 39.7781 19.1209 39.9502C19.7594 40.0166 22.5192 40.0166 23.1577 39.9502C25.9877 39.653 28.385 38.9884 30.7494 37.843C31.1119 37.667 31.182 37.6202 31.1325 37.5809C31.0995 37.5575 29.5549 35.5911 27.7012 33.2141L24.3317 28.8941L20.1096 22.9634C17.7863 19.7028 15.875 17.0366 15.8586 17.0366C15.8421 17.0327 15.8257 19.6678 15.8174 22.8852C15.8049 28.5187 15.801 28.7455 15.7267 28.8784C15.6197 29.07 15.5373 29.1483 15.3643 29.2342C15.2324 29.2967 15.117 29.3084 14.4951 29.3084H13.7824L13.5931 29.1952C13.4757 29.1253 13.3803 29.0267 13.317 28.9097L13.2305 28.7337L13.2387 20.8953L13.251 13.0528L13.3788 12.9003C13.4446 12.8183 13.5847 12.7128 13.6836 12.6619C13.8525 12.5838 13.9184 12.5759 14.6309 12.5759C15.4713 12.5759 15.6113 12.6072 15.8296 12.8339C15.8915 12.8964 18.1776 16.1648 20.9127 20.1017C23.6479 24.0384 27.3883 29.4141 29.2253 32.053L32.5619 36.8498L32.7308 36.7444C34.2261 35.8217 35.8078 34.5081 37.06 33.1397C39.7251 30.235 41.4428 26.6931 42.0196 22.9166C42.1884 21.818 42.209 21.4934 42.209 20.0041C42.209 18.5144 42.1884 18.19 42.0196 17.0914C40.8744 9.58125 35.2435 3.27125 27.6066 0.933438C26.2594 0.519063 24.826 0.233594 23.2195 0.0615632C22.8241 0.0225007 20.1013 -0.0204681 19.7594 0.0107819ZM28.385 12.1067C28.5827 12.2005 28.7433 12.3805 28.801 12.5681C28.8339 12.6697 28.8421 14.8434 28.8339 19.742L28.8217 26.7712L27.5159 24.8713L26.2059 22.9713V17.8616C26.2059 14.558 26.2224 12.7009 26.2471 12.6111C26.3129 12.3922 26.4573 12.2202 26.655 12.1184C26.8239 12.0364 26.8856 12.0286 27.5323 12.0286C28.142 12.0286 28.249 12.0364 28.385 12.1067Z" fill="black"/>
</g>
<defs>
<clipPath id="clip0_3153_425">
<rect width="42.1394" height="40" fill="white" transform="translate(0.0696411)"/>
</clipPath>
</defs>
</svg>
