<svg width="41" height="40" viewBox="0 0 41 40" fill="none" xmlns="http://www.w3.org/2000/svg">
<g clip-path="url(#clip0_3153_407)">
<path d="M20.6129 39.9258C19.9919 39.9258 19.4123 39.7791 18.8742 39.5224L13.368 36.6247C12.54 36.2212 12.954 36.0745 13.2024 36.0011C14.3201 35.671 14.5271 35.5977 15.6862 35.0107C15.8106 34.9373 15.9762 34.974 16.1002 35.0474L20.3231 37.2849C20.4887 37.3582 20.6957 37.3582 20.8199 37.2849L37.3382 28.8119C37.5038 28.7386 37.5866 28.5919 37.5866 28.4085V11.499C37.5866 11.3156 37.5038 11.1689 37.3382 11.0955L20.8199 2.65912C20.6543 2.58577 20.4473 2.58577 20.3231 2.65912L3.80469 11.0957C3.6391 11.169 3.5563 11.3524 3.5563 11.4991V28.4085C3.5563 28.5552 3.6391 28.7386 3.80469 28.8119L8.31733 31.1227C10.7599 32.223 12.2915 30.9393 12.2915 29.6555V12.9661C12.2915 12.746 12.4986 12.526 12.7884 12.526H14.8998C15.1482 12.526 15.3966 12.7094 15.3966 12.9661V29.6554C15.3966 32.5531 13.6164 34.2403 10.5114 34.2403C9.55926 34.2403 8.8141 34.2403 6.70283 33.3233L2.35578 31.1227C1.27944 30.5723 0.617081 29.5454 0.617081 28.445V11.5358C0.617081 10.4355 1.27944 9.40847 2.35578 8.85815L18.8742 0.385213C19.9091 -0.128282 21.3166 -0.128282 22.3516 0.385213L38.8699 8.85815C39.9463 9.40833 40.6086 10.4353 40.6086 11.5358V28.4451C40.6086 29.5455 39.9463 30.5725 38.8699 31.1227L22.3516 39.5959C21.8134 39.8159 21.1924 39.926 20.6129 39.926V39.9258ZM25.7049 28.2983C18.46 28.2983 16.9697 25.364 16.9697 22.8698C16.9697 22.6497 17.1767 22.4296 17.4665 22.4296H19.6192C19.8676 22.4296 20.0747 22.5764 20.0747 22.7964C20.4059 24.7404 21.358 25.6941 25.7463 25.6941C29.2239 25.6941 30.7143 24.9973 30.7143 23.3467C30.7143 22.393 30.3004 21.6961 24.877 21.2191C20.3645 20.8157 17.5493 19.9354 17.5493 16.7444C17.5493 13.7732 20.3643 12.0126 25.084 12.0126C30.383 12.0126 32.9912 13.6265 33.3224 17.1477C33.3224 17.2577 33.281 17.3678 33.1982 17.4778C33.1154 17.5512 32.9912 17.6245 32.867 17.6245H30.7143C30.5072 17.6245 30.3004 17.4778 30.2588 17.2944C29.762 15.2771 28.4787 14.6169 25.084 14.6169C21.2754 14.6169 20.8199 15.7906 20.8199 16.6709C20.8199 17.7347 21.358 18.0647 26.4915 18.6515C31.5837 19.2384 33.9847 20.0821 33.9847 23.2366C33.9433 26.4644 30.9627 28.2983 25.7049 28.2983V28.2983Z" fill="#539E43"/>
</g>
<defs>
<clipPath id="clip0_3153_407">
<rect width="40" height="40" fill="white" transform="translate(0.61264)"/>
</clipPath>
</defs>
</svg>
