<svg width="40" height="40" viewBox="0 0 40 40" fill="none" xmlns="http://www.w3.org/2000/svg">
<path d="M24.1857 22L21.3957 0H21.1871C16.3164 0.00891237 11.647 2.09407 8.19962 5.79969C4.75227 9.50531 2.80734 14.53 2.78998 19.7754V20L24.1857 22Z" fill="#ED6C47"/>
<path d="M21.6043 0H21.3957V20L30.6971 24L40 20V19.7754C39.9826 14.5303 38.0379 9.50581 34.5908 5.80023C31.1438 2.09466 26.4748 0.00931853 21.6043 0V0Z" fill="#FF8F6B"/>
<path d="M40 20V20.22C39.9819 25.4661 38.0364 30.4913 34.5888 34.1975C31.1411 37.9038 26.4714 39.9899 21.6 40H21.19C16.3188 39.9891 11.6496 37.9027 8.20203 34.1966C4.7545 30.4905 2.80884 25.4659 2.78998 20.22V20H40Z" fill="#D35230"/>
<path opacity="0.1" d="M22.3257 9.82923V31.1692C22.3231 31.5323 22.2212 31.8865 22.0327 32.1875C21.8441 32.4885 21.5773 32.723 21.2657 32.8615C21.0622 32.9539 20.8437 33.0015 20.6228 33.0015H7.18142C6.92064 32.6794 6.67233 32.3458 6.43713 32.0015C4.06754 28.6046 2.78751 24.4702 2.78999 20.2215V19.7815C2.7855 15.9491 3.82726 12.1999 5.78571 9C5.9888 8.65631 6.20616 8.32263 6.43713 8H20.6228C21.0728 8.00321 21.5036 8.19682 21.8221 8.53904C22.1407 8.88127 22.3216 9.34466 22.3257 9.82923V9.82923Z" fill="black"/>
<path opacity="0.2" d="M21.3957 10.8308V32.1708C21.3956 32.4076 21.3514 32.6419 21.2657 32.86C21.1368 33.1953 20.919 33.4823 20.6395 33.685C20.36 33.8878 20.0313 33.9974 19.6943 34H8.02856C7.73428 33.6779 7.45189 33.3446 7.18142 33C6.92063 32.6779 6.67233 32.3442 6.43713 32C4.06754 28.6031 2.78751 24.4687 2.78999 20.22V19.78C2.78578 15.9481 3.82753 12.1994 5.7857 9H19.6928C20.1431 9.00322 20.574 9.19703 20.8926 9.53959C21.2113 9.88214 21.392 10.3459 21.3957 10.8308V10.8308Z" fill="black"/>
<path opacity="0.2" d="M21.3957 10.8308V30.1708C21.3916 30.6553 21.2107 31.1187 20.8921 31.461C20.5736 31.8032 20.1428 31.9968 19.6928 32H6.43713C4.06754 28.6031 2.78751 24.4687 2.78999 20.22V19.78C2.78578 15.9481 3.82753 12.1994 5.7857 9H19.6928C20.1431 9.00322 20.574 9.19703 20.8926 9.53959C21.2113 9.88214 21.392 10.3459 21.3957 10.8308V10.8308Z" fill="black"/>
<path opacity="0.2" d="M20.4657 10.8308V30.1708C20.4616 30.6553 20.2807 31.1187 19.9621 31.461C19.6436 31.8032 19.2128 31.9968 18.7628 32H6.43713C4.06754 28.6031 2.78751 24.4687 2.78999 20.22V19.78C2.78578 15.9481 3.82753 12.1994 5.7857 9H18.7628C19.2131 9.00322 19.644 9.19703 19.9626 9.53959C20.2813 9.88214 20.462 10.3459 20.4657 10.8308V10.8308Z" fill="black"/>
<path d="M1.70571 9H18.76C19.2118 8.99959 19.6452 9.19236 19.965 9.53594C20.2849 9.87952 20.465 10.3458 20.4657 10.8323V29.1677C20.465 29.6542 20.2849 30.1205 19.965 30.4641C19.6452 30.8076 19.2118 31.0004 18.76 31H1.70571C1.48197 31.0004 1.26035 30.9533 1.05351 30.8614C0.846675 30.7696 0.658679 30.6347 0.50027 30.4645C0.341861 30.2943 0.216144 30.0922 0.130305 29.8697C0.0444661 29.6472 0.000187389 29.4086 0 29.1677V10.8323C0.000187389 10.5914 0.0444661 10.3528 0.130305 10.1303C0.216144 9.90777 0.341861 9.70566 0.50027 9.53549C0.658679 9.36533 0.846675 9.23045 1.05351 9.13856C1.26035 9.04668 1.48197 8.9996 1.70571 9V9Z" fill="url(#paint0_linear_3340_1434)"/>
<path d="M10.4186 13.8892C11.5288 13.8088 12.6294 14.1556 13.5243 14.8677C13.8922 15.2204 14.1807 15.6588 14.3679 16.1496C14.555 16.6403 14.6359 17.1706 14.6043 17.7C14.6168 18.4458 14.432 19.18 14.0714 19.8169C13.7067 20.4436 13.1812 20.9432 12.5586 21.2554C11.8471 21.6107 11.0698 21.7864 10.2857 21.7692H8.12428V26.0769H5.91571V13.8892H10.4186ZM8.12285 19.9077H10.0243C10.6271 19.9545 11.2251 19.7624 11.7057 19.3677C11.9022 19.1658 12.0552 18.92 12.154 18.6475C12.2527 18.3751 12.2947 18.0826 12.2771 17.7908C12.2771 16.4482 11.5509 15.7764 10.0986 15.7754H8.12285V19.9077V19.9077Z" fill="white"/>
<defs>
<linearGradient id="paint0_linear_3340_1434" x1="3.56286" y1="7.56" x2="18.4398" y2="31.4843" gradientUnits="userSpaceOnUse">
<stop stop-color="#CA4C28"/>
<stop offset="0.5" stop-color="#C5401E"/>
<stop offset="1" stop-color="#B62F14"/>
</linearGradient>
</defs>
</svg>
