<svg width="41" height="40" viewBox="0 0 41 40" fill="none" xmlns="http://www.w3.org/2000/svg">
<g clip-path="url(#clip0_3153_397)">
<path d="M20.2003 0.0112915C10.0711 0.0112915 10.7035 4.42149 10.7035 4.42149L10.7148 8.99059H20.3809V10.3624H6.87553C6.87553 10.3624 0.393852 9.62431 0.393852 19.8855C0.393852 30.147 6.05122 29.7831 6.05122 29.7831H9.42752V25.0213C9.42752 25.0213 9.2455 19.3413 14.9946 19.3413H24.5816C24.5816 19.3413 29.9679 19.4287 29.9679 14.1148V5.32863C29.9679 5.32863 30.786 0.0112915 20.2003 0.0112915ZM14.8704 3.08392C15.0988 3.08371 15.325 3.12873 15.5361 3.2164C15.7471 3.30406 15.9389 3.43265 16.1004 3.59482C16.262 3.75698 16.39 3.94952 16.4774 4.16144C16.5647 4.37335 16.6095 4.60047 16.6093 4.8298C16.6095 5.05913 16.5647 5.28625 16.4774 5.49817C16.39 5.71008 16.262 5.90263 16.1004 6.06479C15.9389 6.22695 15.7471 6.35554 15.5361 6.44321C15.325 6.53087 15.0988 6.57589 14.8704 6.57568C14.642 6.57589 14.4157 6.53087 14.2047 6.44321C13.9936 6.35554 13.8018 6.22695 13.6403 6.06479C13.4788 5.90263 13.3507 5.71008 13.2634 5.49817C13.1761 5.28625 13.1312 5.05913 13.1315 4.8298C13.1312 4.60047 13.1761 4.37335 13.2634 4.16144C13.3507 3.94952 13.4788 3.75698 13.6403 3.59482C13.8018 3.43265 13.9936 3.30406 14.2047 3.2164C14.4157 3.12873 14.642 3.08371 14.8704 3.08392V3.08392Z" fill="url(#paint0_linear_3153_397)"/>
<path d="M20.4878 39.8629C30.617 39.8629 29.9846 35.4527 29.9846 35.4527L29.9733 30.8838H20.307V29.512H33.8124C33.8124 29.512 40.2941 30.25 40.2941 19.9885C40.2941 9.72721 34.6367 10.0911 34.6367 10.0911H31.2604V14.8527C31.2604 14.8527 31.4424 20.5327 25.6933 20.5327H16.1063C16.1063 20.5327 10.72 20.4453 10.72 25.7594V34.5457C10.72 34.5457 9.90207 39.8629 20.4876 39.8629H20.4878ZM25.8177 36.7906C25.5893 36.7908 25.3631 36.7458 25.152 36.6581C24.9409 36.5704 24.7492 36.4418 24.5876 36.2797C24.4261 36.1175 24.298 35.925 24.2107 35.7131C24.1234 35.5012 24.0786 35.274 24.0788 35.0447C24.0785 34.8154 24.1234 34.5882 24.2107 34.3763C24.298 34.1644 24.4261 33.9718 24.5876 33.8096C24.7491 33.6474 24.9409 33.5188 25.152 33.4312C25.363 33.3435 25.5893 33.2985 25.8177 33.2987C26.0461 33.2985 26.2723 33.3435 26.4834 33.4311C26.6945 33.5188 26.8863 33.6474 27.0478 33.8096C27.2093 33.9717 27.3374 34.1643 27.4247 34.3762C27.512 34.5881 27.5568 34.8152 27.5566 35.0445C27.5568 35.2739 27.512 35.501 27.4247 35.7129C27.3374 35.9248 27.2093 36.1174 27.0478 36.2795C26.8863 36.4417 26.6945 36.5703 26.4834 36.6579C26.2723 36.7456 26.0461 36.7906 25.8177 36.7904V36.7906Z" fill="url(#paint1_linear_3153_397)"/>
</g>
<defs>
<linearGradient id="paint0_linear_3153_397" x1="4.22826" y1="3.59571" x2="24.0798" y2="23.1709" gradientUnits="userSpaceOnUse">
<stop stop-color="#387EB8"/>
<stop offset="1" stop-color="#366994"/>
</linearGradient>
<linearGradient id="paint1_linear_3153_397" x1="16.3651" y1="16.2166" x2="37.6794" y2="36.2854" gradientUnits="userSpaceOnUse">
<stop stop-color="#FFE052"/>
<stop offset="1" stop-color="#FFC331"/>
</linearGradient>
<clipPath id="clip0_3153_397">
<rect width="40" height="40" fill="white" transform="translate(0.369537)"/>
</clipPath>
</defs>
</svg>
