<svg width="41" height="40" viewBox="0 0 41 40" fill="none" xmlns="http://www.w3.org/2000/svg">
<g clip-path="url(#clip0_3153_429)">
<path d="M32.9556 12.9516C32.53 12.7876 32.1008 12.6357 31.6683 12.496C31.741 12.1626 31.8078 11.8333 31.8672 11.5098C32.8417 6.19738 32.2047 1.91755 30.0286 0.508429C27.9423 -0.842449 24.5302 0.566148 21.0842 3.93404C20.7446 4.26656 20.4125 4.60865 20.0883 4.96001C19.8712 4.72637 19.6504 4.49727 19.4258 4.27281C15.8142 0.671762 12.1942 -0.845957 10.0205 0.567201C7.93601 1.92229 7.31878 5.94562 8.19613 10.9804C8.28341 11.479 8.38197 11.9751 8.4917 12.4681C7.97929 12.6316 7.48484 12.8056 7.01164 12.9909C2.77737 14.6488 0.0733032 17.2468 0.0733032 19.9418C0.0733032 22.7251 2.97624 25.5169 7.38642 27.2097C7.74396 27.3463 8.10448 27.473 8.46764 27.5895C8.3497 28.1205 8.24499 28.6551 8.15363 29.1926C7.31721 34.14 7.97038 38.0683 10.0492 39.4147C12.1964 40.8053 15.8001 39.3762 19.3091 35.9314C19.5936 35.6514 19.8719 35.3634 20.1436 35.0677C20.4947 35.4482 20.8552 35.8176 21.2247 36.1754C24.6238 39.46 27.9807 40.7863 30.0575 39.4361C32.2026 38.0416 32.8998 33.8216 31.9947 28.6874C31.9234 28.2851 31.8434 27.8849 31.7549 27.487C32.008 27.4028 32.2564 27.3161 32.4985 27.226C37.0833 25.5202 40.0664 22.7623 40.0664 19.9418C40.0664 17.237 37.275 14.6214 32.9556 12.9516V12.9516ZM31.9613 25.4049C31.7425 25.4861 31.5182 25.5646 31.2895 25.6409C30.7833 23.8414 30.1003 21.9281 29.2644 19.9511C30.0621 18.0212 30.7188 16.1323 31.2108 14.3446C31.6199 14.4776 32.0169 14.6177 32.3996 14.7656C36.1005 16.1965 38.358 18.3118 38.358 19.9418C38.358 21.6779 35.92 23.9318 31.9613 25.4049V25.4049ZM30.3187 29.06C30.719 31.3302 30.776 33.3828 30.5109 34.9876C30.2728 36.4295 29.7938 37.3907 29.2014 37.7758C27.9412 38.5951 25.2459 37.5302 22.339 34.7211C21.9954 34.3883 21.66 34.0449 21.3334 33.6912C22.4604 32.3072 23.5866 30.6983 24.6858 28.9112C26.6192 28.7186 28.4458 28.4035 30.1022 27.9735C30.182 28.3337 30.2542 28.696 30.3187 29.06V29.06ZM13.7078 37.6342C12.4765 38.1225 11.4957 38.1365 10.9028 37.7526C9.64135 36.9356 9.1169 33.7814 9.83225 29.5505C9.91729 29.0506 10.0146 28.5534 10.1242 28.0595C11.7624 28.4665 13.5757 28.7591 15.5136 28.9356C16.6203 30.6842 17.779 32.2914 18.9468 33.6988C18.6986 33.9685 18.4446 34.2312 18.1849 34.4869C16.6331 36.01 15.0782 37.0907 13.7078 37.6342V37.6342ZM7.93914 25.3942C5.989 24.6456 4.3785 23.6728 3.27463 22.6112C2.28261 21.6574 1.78192 20.7102 1.78192 19.9418C1.78192 18.3063 3.95295 16.2204 7.57405 14.8026C8.0135 14.6307 8.47342 14.4684 8.95068 14.3161C9.45122 16.1442 10.1077 18.0556 10.8999 19.9884C10.0974 21.9498 9.43154 23.8918 8.92616 25.7414C8.59467 25.6348 8.26556 25.519 7.93914 25.3942V25.3942ZM9.87287 10.6118C9.12128 6.29825 9.62041 3.04439 10.8766 2.22773C12.2145 1.3579 15.1731 2.59808 18.2914 5.70755C18.4948 5.91078 18.6948 6.11812 18.8915 6.32948C17.7295 7.73071 16.5814 9.32597 15.4846 11.0642C13.6036 11.26 11.8032 11.5744 10.1478 11.9956C10.0458 11.5371 9.95415 11.0757 9.87287 10.6119V10.6118ZM27.1241 15.3956C26.7331 14.6372 26.3276 13.8883 25.9079 13.1495C27.184 13.3307 28.4066 13.5712 29.5546 13.8653C29.21 15.106 28.7804 16.403 28.2747 17.7328C27.9051 16.9452 27.5215 16.166 27.1241 15.3956V15.3956ZM20.0891 7.70071C20.8771 8.65948 21.6663 9.72983 22.4426 10.8912C20.8679 10.8077 19.2905 10.8074 17.7157 10.8902C18.4928 9.73948 19.2888 8.67053 20.0891 7.70071ZM13.0089 15.4088C12.6165 16.173 12.2401 16.9473 11.8799 17.7312C11.3825 16.4061 10.9567 15.1032 10.6091 13.8449C11.7502 13.5583 12.967 13.3239 14.2349 13.146C13.8105 13.8893 13.4017 14.6437 13.0089 15.4086V15.4088ZM14.2713 26.874C12.9614 26.7098 11.7263 26.4876 10.5856 26.2086C10.9386 24.9279 11.3737 23.5972 11.8819 22.2437C12.2435 23.0282 12.6215 23.803 13.0156 24.5676C13.4209 25.3535 13.8405 26.1233 14.2713 26.874ZM20.1363 32.3179C19.3264 31.3369 18.5187 30.2514 17.73 29.084C18.4958 29.1177 19.2764 29.1349 20.0699 29.1349C20.885 29.1349 21.6908 29.1144 22.484 29.0747C21.7052 30.2632 20.9189 31.3502 20.1363 32.3179ZM28.2908 22.1746C28.8254 23.543 29.2759 24.8667 29.6337 26.1254C28.4742 26.4226 27.2222 26.6619 25.9031 26.8397C26.3258 26.0871 26.7351 25.3252 27.1308 24.5544C27.5332 23.7709 27.9199 22.9774 28.2908 22.1746V22.1746ZM25.6509 23.5958C25.0451 24.7776 24.4053 25.937 23.7324 27.0721C22.5134 27.1691 21.2918 27.2172 20.0699 27.2165C18.8252 27.2165 17.6147 27.173 16.4489 27.0881C15.7585 25.9556 15.1064 24.7942 14.4941 23.6063H14.4943C13.8849 22.4248 13.3156 21.2176 12.7878 19.9876C13.3143 18.7572 13.8818 17.5495 14.4891 16.367L14.489 16.3672C15.096 15.1844 15.7429 14.028 16.4281 12.9004C17.6175 12.7993 18.8371 12.7467 20.0697 12.7467H20.0699C21.3081 12.7467 22.5293 12.7998 23.7183 12.9016C24.3966 14.0275 25.0394 15.18 25.6453 16.3568C26.2546 17.5367 26.8296 18.7385 27.3694 19.9604C26.8352 21.1947 26.262 22.4073 25.6509 23.5958V23.5958ZM29.1753 2.17053C30.5145 3.0379 31.0353 6.53562 30.1939 11.1225C30.1402 11.4151 30.0799 11.7132 30.0143 12.0154C28.3548 11.5853 26.5531 11.2654 24.6667 11.0667C23.5679 9.30931 22.4291 7.71159 21.2861 6.32843C21.5856 6.00413 21.8924 5.68825 22.2059 5.38106C25.1585 2.49562 27.918 1.35632 29.1753 2.17053V2.17053ZM20.0699 15.9312C22.0422 15.9312 23.6411 17.7268 23.6411 19.9418C23.6411 22.1567 22.0422 23.9523 20.0699 23.9523C18.0975 23.9523 16.4986 22.1567 16.4986 19.9418C16.4986 17.7268 18.0975 15.9312 20.0699 15.9312V15.9312Z" fill="#00D8FF"/>
</g>
<defs>
<clipPath id="clip0_3153_429">
<rect width="40" height="40" fill="white" transform="translate(0.0696716)"/>
</clipPath>
</defs>
</svg>
