<svg width="24" height="24" viewBox="0 0 24 24" fill="none" xmlns="http://www.w3.org/2000/svg">
<path fill-rule="evenodd" clip-rule="evenodd" d="M2.9185e-06 3.80952C2.9185e-06 2.79918 0.526787 1.83021 1.46447 1.11578C2.40215 0.401359 3.67392 0 5 0L22.5 0C22.8978 0 23.2794 0.120408 23.5607 0.334735C23.842 0.549062 24 0.839753 24 1.14286V20.1905C24 20.4936 23.842 20.7843 23.5607 20.9986C23.2794 21.2129 22.8978 21.3333 22.5 21.3333H17.5C17.1022 21.3333 16.7206 21.2129 16.4393 20.9986C16.158 20.7843 16 20.4936 16 20.1905C16 19.8874 16.158 19.5967 16.4393 19.3824C16.7206 19.168 17.1022 19.0476 17.5 19.0476H21V16H5C4.60617 16 4.22111 16.0887 3.89313 16.2548C3.56515 16.4209 3.30883 16.6571 3.15632 16.9337C3.00382 17.2104 2.96191 17.5152 3.03586 17.8099C3.10981 18.1047 3.29632 18.3762 3.572 18.5905C3.85048 18.8071 4.00461 19.0991 4.00048 19.4023C3.99636 19.7055 3.83431 19.9951 3.55 20.2072C3.26569 20.4194 2.8824 20.5368 2.48445 20.5337C2.08649 20.5306 1.70648 20.4071 1.428 20.1905C0.511427 19.4787 -0.00141162 18.521 2.9185e-06 17.5238V3.80952ZM21 2.28571V13.7143H5C4.288 13.7143 3.612 13.827 3 14.0312V3.80952C3 3.40538 3.21072 3.0178 3.58579 2.73203C3.96086 2.44626 4.46957 2.28571 5 2.28571H21ZM6 18.6667V23.619C6 23.6898 6.02586 23.7591 6.07468 23.8193C6.12349 23.8795 6.19334 23.9281 6.27639 23.9598C6.35945 23.9914 6.45242 24.0048 6.5449 23.9985C6.63739 23.9921 6.72572 23.9663 6.8 23.9238L9.7 22.2674C9.78655 22.218 9.89182 22.1912 10 22.1912C10.1082 22.1912 10.2135 22.218 10.3 22.2674L13.2 23.9238C13.2743 23.9663 13.3626 23.9921 13.4551 23.9985C13.5476 24.0048 13.6406 23.9914 13.7236 23.9598C13.8067 23.9281 13.8765 23.8795 13.9253 23.8193C13.9741 23.7591 14 23.6898 14 23.619V18.6667C14 18.5656 13.9473 18.4687 13.8536 18.3973C13.7598 18.3259 13.6326 18.2857 13.5 18.2857H6.5C6.36739 18.2857 6.24022 18.3259 6.14645 18.3973C6.05268 18.4687 6 18.5656 6 18.6667Z" fill="#F67023"/>
</svg>
