<svg width="41" height="40" viewBox="0 0 41 40" fill="none" xmlns="http://www.w3.org/2000/svg">
<g clip-path="url(#clip0_3153_388)">
<path d="M34.6514 19.1383C46.9973 29.1449 35.707 37.8225 25.6035 39.5083C13.9543 41.4541 3.41428 37.4069 0.273723 31.2152C4.32488 35.6265 16.0891 36.5831 22.4961 33.8961C29.7685 30.8465 32.1677 25.4882 26.8046 21.1416C26.8046 21.1416 18.8799 14.7715 18.8781 14.7703C17.4862 13.6447 17.9819 12.1061 19.6705 11.177C21.3483 10.2537 23.6228 10.2488 25.0192 11.3588L34.6514 19.1383V19.1383ZM13.3805 18.8594C8.01921 14.5127 10.4204 9.15336 17.6907 6.10234C24.097 3.41547 35.8621 4.37219 39.913 8.78562C36.771 2.59156 26.2339 -1.45321 14.5833 0.491326C4.47902 2.17734 -6.81179 10.8512 5.53582 20.8613L14.9795 28.5187C16.3759 29.6287 18.6488 29.6216 20.3285 28.6971C22.0153 27.7691 22.5126 26.2317 21.1208 25.1026C21.1171 25.1013 13.3806 18.8594 13.3806 18.8594H13.3805Z" fill="#0379CE"/>
</g>
<defs>
<clipPath id="clip0_3153_388">
<rect width="40" height="40" fill="white" transform="translate(0.126465)"/>
</clipPath>
</defs>
</svg>
