<svg width="41" height="40" viewBox="0 0 41 40" fill="none" xmlns="http://www.w3.org/2000/svg">
<g clip-path="url(#clip0_3153_438)">
<path d="M34.5862 23.0891C33.1908 23.0987 31.9779 23.5469 30.9624 24.2094C30.5897 23.2253 30.2171 22.3487 30.1514 21.7056C30.0783 20.9556 29.9907 20.4976 30.0783 19.6013C30.166 18.705 30.5605 17.4287 30.5532 17.3313C30.546 17.2339 30.4654 16.776 29.6618 16.7664C28.8582 16.7565 28.1641 16.9709 28.0837 17.2534C28.0033 17.5358 27.8499 18.1789 27.7476 18.8412C27.6088 19.8157 26.1404 23.2935 25.3002 25.1153C25.0298 24.4043 24.796 23.7807 24.7448 23.2838C24.6718 22.5338 24.584 22.0758 24.6718 21.1795C24.7595 20.2832 25.1541 19.0071 25.1467 18.9095C25.1393 18.8122 25.0589 18.3542 24.2553 18.3446C23.4515 18.3348 22.7574 18.5491 22.6772 18.8316C22.5968 19.1143 22.5091 19.7766 22.3411 20.4197C22.173 21.0627 20.2223 26.8692 19.7109 28.3693C19.5042 28.9765 19.2874 29.5775 19.0607 30.1718C19.0607 30.1718 19.0533 30.201 19.0314 30.2497C18.9601 30.436 18.8871 30.6212 18.8123 30.805V30.8146C18.7026 31.0779 18.5858 31.3213 18.5273 31.3213C18.4835 31.3213 18.4031 30.6199 18.5419 29.6651C18.8341 27.6485 19.5282 24.5115 19.521 24.4043C19.521 24.3458 19.6525 23.8003 19.068 23.5176C18.498 23.2352 18.2936 23.7027 18.2423 23.7027C18.1912 23.7027 18.1546 23.8684 18.1546 23.8684C18.1546 23.8684 18.7904 20.3417 16.9418 20.3417C15.7876 20.3417 14.1947 22.0271 13.4057 23.5469C12.5087 24.1978 11.6125 24.8505 10.717 25.5052C10.2861 25.8267 9.84037 26.1482 9.4239 26.4501C9.3946 26.4113 9.36546 26.3624 9.33616 26.3235C7.10046 23.1378 2.96529 20.8872 3.14062 16.6105C3.20642 15.0517 3.60816 10.9599 11.0824 5.99135C17.2341 1.94819 22.1293 3.06846 22.9768 5.55282C24.1895 9.09915 20.3539 15.685 13.9975 16.6395C11.5719 17.0001 10.3005 15.7531 9.97919 15.2855C9.6431 14.7983 9.59187 14.769 9.46762 14.8666C9.26315 15.0128 9.3946 15.4512 9.46762 15.7044C9.65767 16.3667 10.4394 17.5358 11.7618 18.1108C12.9308 18.6172 15.7728 18.8999 19.2141 17.1268C23.0644 15.1392 26.0746 9.61541 25.1906 4.98788C24.3064 0.292028 18.4615 -1.25696 12.9308 1.36362C9.6431 2.92263 6.07763 5.37753 3.51321 8.57307C0.466515 12.3724 -0.0157542 15.6751 0.181509 17.0587C0.890341 21.9686 5.96811 25.1642 7.99919 27.5315C7.89688 27.6095 7.80177 27.6778 7.72155 27.7363C6.70593 28.4084 2.83368 31.1069 1.86929 33.9615C0.773456 37.1959 2.04478 39.5148 2.88491 39.8263C5.49321 40.7909 8.17452 39.0568 9.6138 36.1924C11.0531 33.3282 10.8778 29.6066 10.213 27.9018C10.2056 27.8823 10.1984 27.8627 10.1837 27.8433C10.4467 27.6387 10.717 27.4244 10.9801 27.2198C11.4636 26.8387 11.9532 26.4716 12.4487 26.1188C12.2002 27.0249 12.0175 28.1063 11.9299 29.6651C11.8202 31.4968 12.3827 33.8737 13.1207 34.8089C13.4496 35.2184 13.8367 35.228 14.0852 35.228C14.9473 35.228 15.3346 34.2732 15.7656 33.1431C16.2916 31.7598 16.7665 30.1523 16.7665 30.1523C16.7665 30.1523 16.1747 34.4974 17.7821 34.4974C18.3666 34.4974 18.9584 33.4841 19.2214 32.9678V32.9774C19.2214 32.9774 19.236 32.9482 19.2653 32.8801C19.3237 32.7535 19.3602 32.6753 19.3602 32.6753V32.6561C19.594 32.1104 20.1202 30.8731 20.9018 28.8175C21.9101 26.1677 22.8818 22.8553 22.8818 22.8553C22.8818 22.8553 22.9696 23.6639 23.269 25.0083C23.4445 25.7975 23.8096 26.6645 24.1019 27.5023C23.8682 27.9408 23.722 28.1842 23.722 28.1842L23.7293 28.1941C23.5393 28.5252 23.3348 28.8856 23.1083 29.2366C22.3118 30.5029 21.3622 31.9547 21.2306 32.3734C21.077 32.8703 21.1137 33.2309 21.4061 33.5232C21.6179 33.7375 21.9977 33.7666 22.385 33.7375C23.101 33.6692 23.6051 33.4354 23.8534 33.2894C24.2408 33.1043 24.6937 32.8216 25.1174 32.4027C25.8992 31.633 26.374 30.5322 26.3303 29.0807C26.3083 28.2818 26.1111 27.4829 25.8699 26.7326C25.9431 26.5964 26.0088 26.46 26.0819 26.3235C27.3166 23.9171 28.2738 21.2769 28.2738 21.2769C28.2738 21.2769 28.3615 22.0854 28.6609 23.4301C28.8071 24.112 29.1067 24.8525 29.3696 25.5733C28.208 26.8302 27.4919 28.2914 27.2362 29.2462C26.776 31.0194 27.1339 31.8181 27.8134 32.0032C28.1202 32.091 28.5586 31.896 28.8801 31.7109C29.2892 31.5356 29.7715 31.2337 30.2318 30.7854C31.0137 30.0159 31.7661 28.9441 31.7222 27.4927C31.7003 26.8302 31.5688 26.1773 31.3861 25.544C32.3724 24.9987 33.6437 24.6966 35.2656 24.9498C38.7435 25.4953 39.4302 28.3888 39.2986 29.6068C39.1671 30.8244 38.4365 31.487 38.1955 31.6915C37.9542 31.8962 37.874 31.9644 37.896 32.1104C37.9251 32.3248 38.042 32.3151 38.2466 32.2761C38.5316 32.208 40.0732 31.292 40.1389 29.0513C40.2485 26.1871 38.2027 23.0599 34.5862 23.0891V23.0891ZM7.75805 35.1501C6.60362 36.8257 4.99637 37.4589 4.30226 36.9232C3.55708 36.3483 3.84929 33.8737 5.26664 32.1008C6.12871 31.0194 7.23928 30.0157 7.97725 29.4021C8.14522 29.2656 8.39372 29.0709 8.69329 28.8273C8.74437 28.7882 8.77367 28.7688 8.77367 28.7688L8.949 28.6226C9.46762 31.1556 8.97093 33.3867 7.75805 35.1501V35.1501ZM16.1602 27.5315C15.7583 28.8371 14.9181 32.1787 14.4067 31.9936C13.9683 31.8377 13.6979 29.3047 14.319 26.8009C14.6331 25.544 15.2979 24.0437 15.6853 23.4593C16.3136 22.524 17.0077 22.2121 17.1756 22.5923C17.3876 23.0891 16.4085 26.7132 16.1602 27.5315V27.5315ZM23.0937 31.9545C22.9256 32.0715 22.765 32.1495 22.6918 32.091C22.6407 32.0519 22.765 31.896 22.765 31.896C22.765 31.896 23.6344 30.6492 23.9777 30.084C24.1751 29.7529 24.4087 29.3632 24.6572 28.9247V29.0513C24.6572 30.542 23.5758 31.5455 23.0935 31.9545H23.0937ZM28.4417 30.3276C28.3175 30.2106 28.3394 29.821 28.7559 28.6031C28.9166 28.1257 29.2964 27.327 29.9468 26.5573C30.0198 26.869 30.0711 27.1711 30.0637 27.4536C30.0563 29.334 29.0482 30.0353 28.4417 30.3276Z" fill="#CD6799"/>
</g>
<defs>
<clipPath id="clip0_3153_438">
<rect width="40" height="40" fill="white" transform="translate(0.0696945)"/>
</clipPath>
</defs>
</svg>
