<svg width="32" height="32" viewBox="0 0 32 32" fill="none" xmlns="http://www.w3.org/2000/svg">
<path d="M9.99996 2.66667C7.61329 4.2 5.99996 6.90667 5.99996 10C5.99996 13.0933 7.61329 15.8 10.04 17.3333C5.94663 17.3333 2.66663 14.0533 2.66663 10C2.66663 8.05508 3.43924 6.18982 4.81451 4.81455C6.18978 3.43928 8.05504 2.66667 9.99996 2.66667V2.66667ZM25.4266 4.66667L27.3333 6.57333L6.57329 27.3333L4.66663 25.4267L25.4266 4.66667ZM17.1866 7.90667L15.2133 6.66667L13.2933 8L13.8533 5.73333L12 4.32L14.3333 4.16L15.1066 1.96L16 4.13333L18.3066 4.17333L16.5066 5.68L17.1866 7.90667ZM12.7866 12.72L11.24 11.7467L9.74663 12.7867L10.2 11.0267L8.74663 9.92L10.56 9.8L11.16 8.08L11.84 9.77333L13.6533 9.81333L12.2533 10.9733L12.7866 12.72V12.72ZM25.3333 18C25.3333 19.9449 24.5607 21.8102 23.1854 23.1854C21.8101 24.5607 19.9449 25.3333 18 25.3333C16.3733 25.3333 14.8666 24.8 13.6533 23.9067L23.9066 13.6533C24.8 14.8667 25.3333 16.3733 25.3333 18V18ZM19.4666 26.7733L23.16 25.24L22.84 29.7067L19.4666 26.7733V26.7733ZM25.24 23.1733L26.7733 19.48L29.7066 22.8667L25.24 23.1733V23.1733ZM26.7733 16.56L25.2533 12.8533L29.7066 13.1733L26.7733 16.56ZM12.84 25.24L16.5333 26.7733L13.16 29.6933L12.84 25.24Z" fill="#212121"/>
</svg>
