<svg width="41" height="40" viewBox="0 0 41 40" fill="none" xmlns="http://www.w3.org/2000/svg">
<g clip-path="url(#clip0_3153_402)">
<path d="M0.491089 20V40H40.4911V0H0.491089V20Z" fill="#007ACC"/>
<path d="M9.33671 20.1328L9.32405 21.7708H14.5303V36.5645H18.2128V21.7708H23.4192V20.1645C23.4192 19.2755 23.4001 18.5327 23.3748 18.5136C23.3558 18.4883 20.1873 18.4755 16.3462 18.4819L9.35562 18.5009L9.33671 20.1327V20.1328ZM32.7672 18.4544C33.783 18.7083 34.5576 19.1591 35.2687 19.8956C35.637 20.2894 36.183 21.0067 36.2275 21.1781C36.24 21.2289 34.5005 22.3972 33.4466 23.0512C33.4084 23.0766 33.2559 22.9116 33.0845 22.6575C32.5703 21.9083 32.0306 21.5845 31.2051 21.5273C29.9926 21.4448 29.2116 22.0797 29.218 23.14C29.218 23.4512 29.2623 23.6353 29.3894 23.8892C29.6561 24.4417 30.1512 24.7719 31.7069 25.4448C34.5703 26.6766 35.7956 27.4892 36.5576 28.6448C37.4084 29.9337 37.5989 31.9909 37.0211 33.5211C36.3862 35.1845 34.8117 36.3147 32.5956 36.6892C31.91 36.8098 30.2847 36.7908 29.5481 36.6575C27.9419 36.3719 26.418 35.5781 25.4783 34.5369C25.11 34.1306 24.3925 33.0702 24.437 32.9941C24.4561 32.9686 24.6211 32.867 24.8051 32.7591C24.983 32.6575 25.6561 32.2702 26.2909 31.902L27.4401 31.2353L27.6814 31.5909C28.018 32.105 28.7544 32.8098 29.1989 33.0448C30.475 33.7178 32.2275 33.6227 33.0909 32.848C33.4592 32.5116 33.6116 32.1623 33.6116 31.648C33.6116 31.1845 33.5544 30.9814 33.3131 30.6322C33.0022 30.1877 32.3672 29.8131 30.5639 29.0322C28.5005 28.1431 27.6116 27.5909 26.7989 26.7147C26.3291 26.2069 25.8845 25.3941 25.7005 24.7147C25.5481 24.1495 25.5098 22.7337 25.6306 22.1623C26.0561 20.1686 27.5608 18.7781 29.7322 18.3655C30.4369 18.2322 32.075 18.283 32.7672 18.4544V18.4544Z" fill="#F0E4DB"/>
</g>
<defs>
<clipPath id="clip0_3153_402">
<rect width="40" height="40" fill="white" transform="translate(0.491089)"/>
</clipPath>
</defs>
</svg>
