<svg width="40" height="40" viewBox="0 0 40 40" fill="none" xmlns="http://www.w3.org/2000/svg">
<g clip-path="url(#clip0_3340_1456)">
<path d="M38.2943 2.58262e-06H11.0071C10.7835 -0.000199536 10.562 0.0470341 10.3554 0.139007C10.1487 0.23098 9.96088 0.36589 9.80262 0.536036C9.64436 0.706181 9.51877 0.908229 9.43302 1.13064C9.34727 1.35306 9.30304 1.59149 9.30286 1.83231V10L25.1157 15L40 10V1.83231C39.9998 1.59136 39.9555 1.3528 39.8697 1.13029C39.7838 0.907773 39.6581 0.705657 39.4997 0.535491C39.3413 0.365325 39.1533 0.230447 38.9465 0.138565C38.7396 0.0466827 38.518 -0.000401787 38.2943 2.58262e-06V2.58262e-06Z" fill="#41A5EE"/>
<path d="M40 10H9.30286V20L25.1157 23L40 20V10Z" fill="#2B7CD3"/>
<path d="M9.30286 20V30L24.1857 32L40 30V20H9.30286Z" fill="#185ABD"/>
<path d="M11.0071 40H38.2928C38.5167 40.0006 38.7385 39.9537 38.9455 39.8619C39.1525 39.7701 39.3407 39.6352 39.4992 39.4651C39.6578 39.2949 39.7836 39.0927 39.8695 38.8701C39.9555 38.6475 39.9998 38.4088 40 38.1677V30H9.30286V38.1677C9.30304 38.4085 9.34727 38.6469 9.43302 38.8694C9.51877 39.0918 9.64436 39.2938 9.80262 39.464C9.96088 39.6341 10.1487 39.769 10.3554 39.861C10.562 39.953 10.7835 40.0002 11.0071 40V40Z" fill="#103F91"/>
<path opacity="0.1" d="M20.62 8H9.30286V33H20.62C21.0709 32.9976 21.5029 32.8039 21.8221 32.4609C22.1414 32.118 22.3223 31.6533 22.3257 31.1677V9.83231C22.3223 9.34667 22.1414 8.88203 21.8221 8.53906C21.5029 8.19609 21.0709 8.00241 20.62 8V8Z" fill="black"/>
<path opacity="0.2" d="M19.69 9H9.30286V34H19.69C20.1409 33.9976 20.5729 33.8039 20.8921 33.4609C21.2114 33.118 21.3923 32.6533 21.3957 32.1677V10.8323C21.3923 10.3467 21.2114 9.88203 20.8921 9.53906C20.5729 9.19609 20.1409 9.00241 19.69 9V9Z" fill="black"/>
<path opacity="0.2" d="M19.69 9H9.30286V32H19.69C20.1409 31.9976 20.5729 31.8039 20.8921 31.4609C21.2114 31.118 21.3923 30.6533 21.3957 30.1677V10.8323C21.3923 10.3467 21.2114 9.88203 20.8921 9.53906C20.5729 9.19609 20.1409 9.00241 19.69 9V9Z" fill="black"/>
<path opacity="0.2" d="M18.76 9H9.30286V32H18.76C19.2109 31.9976 19.6429 31.8039 19.9621 31.4609C20.2814 31.118 20.4623 30.6533 20.4657 30.1677V10.8323C20.4623 10.3467 20.2814 9.88203 19.9621 9.53906C19.6429 9.19609 19.2109 9.00241 18.76 9V9Z" fill="black"/>
<path d="M1.70571 9H18.76C19.2117 8.99959 19.6452 9.19236 19.965 9.53594C20.2849 9.87952 20.4649 10.3458 20.4657 10.8323V29.1677C20.4649 29.6542 20.2849 30.1205 19.965 30.4641C19.6452 30.8076 19.2117 31.0004 18.76 31H1.70571C1.48197 31.0004 1.26035 30.9533 1.05351 30.8614C0.846675 30.7696 0.658679 30.6347 0.50027 30.4645C0.341861 30.2943 0.216144 30.0922 0.130305 29.8697C0.0444661 29.6472 0.000187389 29.4086 0 29.1677V10.8323C0.000187389 10.5914 0.0444661 10.3528 0.130305 10.1303C0.216144 9.90777 0.341861 9.70566 0.50027 9.53549C0.658679 9.36533 0.846675 9.23045 1.05351 9.13856C1.26035 9.04668 1.48197 8.9996 1.70571 9V9Z" fill="url(#paint0_linear_3340_1456)"/>
<path d="M6.99997 23.0585C7.03282 23.3415 7.05568 23.5877 7.06568 23.7985H7.10568C7.11997 23.5985 7.1514 23.3569 7.19854 23.0754C7.24568 22.7938 7.28711 22.5554 7.32568 22.36L9.11854 14.0415H11.4385L13.2957 22.2354C13.4039 22.7422 13.4812 23.2561 13.5271 23.7738H13.5585C13.5927 23.2699 13.6571 22.7688 13.7514 22.2738L15.2357 14.0308H17.3457L14.74 25.9508H12.2728L10.5057 18.0646C10.4543 17.8369 10.3962 17.5405 10.3314 17.1754C10.2666 16.8102 10.2266 16.5436 10.2114 16.3754H10.1814C10.1614 16.5692 10.1214 16.8569 10.0614 17.2385C10.0014 17.6215 9.95425 17.9031 9.91854 18.0877L8.25711 25.9554H5.74854L3.12854 14.0415H5.2714L6.88711 22.3769C6.93533 22.6019 6.973 22.8294 6.99997 23.0585V23.0585Z" fill="white"/>
</g>
<defs>
<linearGradient id="paint0_linear_3340_1456" x1="3.56286" y1="7.56" x2="18.4398" y2="31.4843" gradientUnits="userSpaceOnUse">
<stop stop-color="#2368C4"/>
<stop offset="0.5" stop-color="#1A5DBE"/>
<stop offset="1" stop-color="#1146AC"/>
</linearGradient>
<clipPath id="clip0_3340_1456">
<rect width="40" height="40" fill="white"/>
</clipPath>
</defs>
</svg>
